<mxfile host="app.diagrams.net" modified="2022-01-20T11:15:24.667Z" agent="5.0 (X11; Linux x86_64) AppleWebKit/537.36 (KHTML, like Gecko) Chrome/97.0.4692.71 Safari/537.36" etag="XaWnvkQKkHYxmMqD9GrZ" version="15.5.6" type="github">
  <diagram id="azKWPLhPDac-qttQemCD" name="Page-1">
    <mxGraphModel dx="836" dy="453" grid="1" gridSize="10" guides="1" tooltips="1" connect="1" arrows="1" fold="1" page="1" pageScale="1" pageWidth="827" pageHeight="1169" math="0" shadow="0">
      <root>
        <mxCell id="0" />
        <mxCell id="1" parent="0" />
        <mxCell id="wjOAivdGiZ2GnUSQhhlL-1" value="&lt;font face=&quot;Computer Modern&quot; data-font-src=&quot;https://fonts.googleapis.com/css?family=Computer+Modern&quot;&gt;Instruction&lt;br&gt;Memory&lt;/font&gt;" style="whiteSpace=wrap;html=1;" vertex="1" parent="1">
          <mxGeometry x="320" y="320" width="80" height="120" as="geometry" />
        </mxCell>
        <mxCell id="wjOAivdGiZ2GnUSQhhlL-3" value="&lt;font face=&quot;Computer Modern&quot;&gt;Data &lt;br&gt;Memory&lt;/font&gt;" style="whiteSpace=wrap;html=1;" vertex="1" parent="1">
          <mxGeometry x="480" y="320" width="80" height="120" as="geometry" />
        </mxCell>
        <mxCell id="wjOAivdGiZ2GnUSQhhlL-7" value="&lt;font face=&quot;Computer Modern&quot;&gt;&lt;span style=&quot;background-color: rgb(248 , 249 , 250)&quot;&gt;mux&lt;/span&gt;&lt;/font&gt;" style="shape=trapezoid;perimeter=trapezoidPerimeter;whiteSpace=wrap;html=1;fixedSize=1;rotation=90;" vertex="1" parent="1">
          <mxGeometry x="100" y="180" width="80" height="40" as="geometry" />
        </mxCell>
        <mxCell id="wjOAivdGiZ2GnUSQhhlL-41" value="&#xa;&#xa;&#xa;   ALU" style="group;fillColor=default;fontFamily=Computer Modern;fontSource=https%3A%2F%2Ffonts.googleapis.com%2Fcss%3Ffamily%3DComputer%2BModern;" vertex="1" connectable="0" parent="1">
          <mxGeometry x="200" y="280" width="50" height="110" as="geometry" />
        </mxCell>
        <mxCell id="wjOAivdGiZ2GnUSQhhlL-13" value="" style="endArrow=none;html=1;rounded=0;" edge="1" parent="wjOAivdGiZ2GnUSQhhlL-41">
          <mxGeometry width="50" height="50" relative="1" as="geometry">
            <mxPoint y="44" as="sourcePoint" />
            <mxPoint as="targetPoint" />
          </mxGeometry>
        </mxCell>
        <mxCell id="wjOAivdGiZ2GnUSQhhlL-14" value="" style="endArrow=none;html=1;rounded=0;" edge="1" parent="wjOAivdGiZ2GnUSQhhlL-41">
          <mxGeometry width="50" height="50" relative="1" as="geometry">
            <mxPoint y="110.00000000000001" as="sourcePoint" />
            <mxPoint y="66" as="targetPoint" />
            <Array as="points">
              <mxPoint y="110.00000000000001" />
            </Array>
          </mxGeometry>
        </mxCell>
        <mxCell id="wjOAivdGiZ2GnUSQhhlL-15" value="" style="endArrow=none;html=1;rounded=0;" edge="1" parent="wjOAivdGiZ2GnUSQhhlL-41">
          <mxGeometry width="50" height="50" relative="1" as="geometry">
            <mxPoint y="110.00000000000001" as="sourcePoint" />
            <mxPoint x="50" y="88" as="targetPoint" />
          </mxGeometry>
        </mxCell>
        <mxCell id="wjOAivdGiZ2GnUSQhhlL-16" value="" style="endArrow=none;html=1;rounded=0;" edge="1" parent="wjOAivdGiZ2GnUSQhhlL-41">
          <mxGeometry width="50" height="50" relative="1" as="geometry">
            <mxPoint as="sourcePoint" />
            <mxPoint x="50" y="22" as="targetPoint" />
          </mxGeometry>
        </mxCell>
        <mxCell id="wjOAivdGiZ2GnUSQhhlL-17" value="" style="endArrow=none;html=1;rounded=0;" edge="1" parent="wjOAivdGiZ2GnUSQhhlL-41">
          <mxGeometry width="50" height="50" relative="1" as="geometry">
            <mxPoint x="50" y="88" as="sourcePoint" />
            <mxPoint x="50" y="22" as="targetPoint" />
          </mxGeometry>
        </mxCell>
        <mxCell id="wjOAivdGiZ2GnUSQhhlL-18" value="" style="endArrow=none;html=1;rounded=0;" edge="1" parent="wjOAivdGiZ2GnUSQhhlL-41">
          <mxGeometry width="50" height="50" relative="1" as="geometry">
            <mxPoint x="12.5" y="55.00000000000001" as="sourcePoint" />
            <mxPoint y="44" as="targetPoint" />
          </mxGeometry>
        </mxCell>
        <mxCell id="wjOAivdGiZ2GnUSQhhlL-19" value="" style="endArrow=none;html=1;rounded=0;" edge="1" parent="wjOAivdGiZ2GnUSQhhlL-41">
          <mxGeometry width="50" height="50" relative="1" as="geometry">
            <mxPoint x="12.5" y="55.00000000000001" as="sourcePoint" />
            <mxPoint y="66" as="targetPoint" />
          </mxGeometry>
        </mxCell>
        <mxCell id="wjOAivdGiZ2GnUSQhhlL-20" value="" style="endArrow=none;html=1;rounded=0;" edge="1" parent="wjOAivdGiZ2GnUSQhhlL-41">
          <mxGeometry width="50" height="50" relative="1" as="geometry">
            <mxPoint y="44" as="sourcePoint" />
            <mxPoint as="targetPoint" />
          </mxGeometry>
        </mxCell>
        <mxCell id="wjOAivdGiZ2GnUSQhhlL-21" value="" style="endArrow=none;html=1;rounded=0;" edge="1" parent="wjOAivdGiZ2GnUSQhhlL-41">
          <mxGeometry width="50" height="50" relative="1" as="geometry">
            <mxPoint y="110.00000000000001" as="sourcePoint" />
            <mxPoint y="66" as="targetPoint" />
            <Array as="points">
              <mxPoint y="110.00000000000001" />
            </Array>
          </mxGeometry>
        </mxCell>
        <mxCell id="wjOAivdGiZ2GnUSQhhlL-22" value="" style="endArrow=none;html=1;rounded=0;" edge="1" parent="wjOAivdGiZ2GnUSQhhlL-41">
          <mxGeometry width="50" height="50" relative="1" as="geometry">
            <mxPoint y="110.00000000000001" as="sourcePoint" />
            <mxPoint x="50" y="88" as="targetPoint" />
          </mxGeometry>
        </mxCell>
        <mxCell id="wjOAivdGiZ2GnUSQhhlL-23" value="" style="endArrow=none;html=1;rounded=0;" edge="1" parent="wjOAivdGiZ2GnUSQhhlL-41">
          <mxGeometry width="50" height="50" relative="1" as="geometry">
            <mxPoint as="sourcePoint" />
            <mxPoint x="50" y="22" as="targetPoint" />
          </mxGeometry>
        </mxCell>
        <mxCell id="wjOAivdGiZ2GnUSQhhlL-24" value="" style="endArrow=none;html=1;rounded=0;" edge="1" parent="wjOAivdGiZ2GnUSQhhlL-41">
          <mxGeometry width="50" height="50" relative="1" as="geometry">
            <mxPoint x="50" y="88" as="sourcePoint" />
            <mxPoint x="50" y="22" as="targetPoint" />
          </mxGeometry>
        </mxCell>
        <mxCell id="wjOAivdGiZ2GnUSQhhlL-25" value="" style="endArrow=none;html=1;rounded=0;" edge="1" parent="wjOAivdGiZ2GnUSQhhlL-41">
          <mxGeometry width="50" height="50" relative="1" as="geometry">
            <mxPoint x="12.5" y="55.00000000000001" as="sourcePoint" />
            <mxPoint y="44" as="targetPoint" />
          </mxGeometry>
        </mxCell>
        <mxCell id="wjOAivdGiZ2GnUSQhhlL-26" value="" style="endArrow=none;html=1;rounded=0;" edge="1" parent="wjOAivdGiZ2GnUSQhhlL-41">
          <mxGeometry width="50" height="50" relative="1" as="geometry">
            <mxPoint x="12.5" y="55.00000000000001" as="sourcePoint" />
            <mxPoint y="66" as="targetPoint" />
          </mxGeometry>
        </mxCell>
      </root>
    </mxGraphModel>
  </diagram>
</mxfile>
